<svg height="472pt" viewBox="0 -37 472 471" width="472pt" xmlns="http://www.w3.org/2000/svg" xmlns:xlink="http://www.w3.org/1999/xlink"><linearGradient id="a"><stop offset="0" stop-color="#00efd1"/><stop offset="1" stop-color="#00acea"/></linearGradient><linearGradient id="b" gradientUnits="userSpaceOnUse" x1="236.002" x2="236.002" xlink:href="#a" y1="-44.79" y2="449.978"/><linearGradient id="c" gradientUnits="userSpaceOnUse" x1="123.31" x2="123.31" xlink:href="#a" y1="-44.79" y2="449.978"/><linearGradient id="d" gradientUnits="userSpaceOnUse" x1="191.448" x2="191.448" xlink:href="#a" y1="-44.79" y2="449.978"/><linearGradient id="e" gradientUnits="userSpaceOnUse" x1="55.172" x2="55.172" xlink:href="#a" y1="-44.79" y2="449.978"/><linearGradient id="f" gradientUnits="userSpaceOnUse" x1="286" x2="286" xlink:href="#a" y1="-44.79" y2="449.978"/><linearGradient id="g" gradientUnits="userSpaceOnUse" x1="326" x2="326" xlink:href="#a" y1="-44.79" y2="449.978"/><linearGradient id="h" gradientUnits="userSpaceOnUse" x1="123.989" x2="123.989" xlink:href="#a" y1="-44.79" y2="449.978"/><path d="m472 8.042969c0-4.417969-3.585938-7.542969-8-7.542969h-456c-4.417969 0-8 3.125-8 7.542969v380.914062c0 4.417969 3.582031 7.542969 8 7.542969h456c4.417969 0 8-3.125 8-7.542969v-278.105469c0-.027343 0-.050781 0-.078124 0-.027344 0-.050782 0-.078126zm-16 372.457031h-440v-262h440zm0-278h-440v-86h440zm0 0" fill="url(#b)"/><path d="m123.308594 88.53125c15.972656 0 28.96875-13.453125 28.96875-29.992188 0-16.539062-12.996094-29.996093-28.96875-29.996093-15.96875 0-28.964844 13.457031-28.964844 29.996093 0 16.535157 12.996094 29.992188 28.964844 29.992188zm0-43.988281c7.152344 0 12.96875 6.277343 12.96875 13.996093 0 7.714844-5.816406 13.992188-12.96875 13.992188-7.148438 0-12.964844-6.277344-12.964844-13.992188 0-7.71875 5.816406-13.996093 12.964844-13.996093zm0 0" fill="url(#c)"/><path d="m191.449219 88.53125c15.972656 0 28.964843-13.453125 28.964843-29.992188 0-16.539062-12.992187-29.996093-28.964843-29.996093-15.972657 0-28.96875 13.457031-28.96875 29.996093 0 16.535157 12.996093 29.992188 28.96875 29.992188zm0-43.988281c7.148437 0 12.964843 6.277343 12.964843 13.996093 0 7.714844-5.816406 13.992188-12.964843 13.992188-7.152344 0-12.96875-6.277344-12.96875-13.992188 0-7.71875 5.820312-13.996093 12.96875-13.996093zm0 0" fill="url(#d)"/><path d="m55.171875 88.53125c15.972656 0 28.964844-13.453125 28.964844-29.992188 0-16.539062-12.992188-29.996093-28.964844-29.996093s-28.964844 13.457031-28.964844 29.996093c0 16.535157 12.992188 29.992188 28.964844 29.992188zm0-43.988281c7.148437 0 12.964844 6.277343 12.964844 13.996093 0 7.714844-5.816407 13.992188-12.964844 13.992188s-12.964844-6.277344-12.964844-13.992188c0-7.71875 5.816407-13.996093 12.964844-13.996093zm0 0" fill="url(#e)"/><path d="m237.75 202.5h96.5c4.417969 0 8-3.582031 8-8s-3.582031-8-8-8h-96.5c-4.417969 0-8 3.582031-8 8s3.582031 8 8 8zm0 0" fill="url(#f)"/><path d="m237.75 252.5h176.5c4.417969 0 8-3.582031 8-8s-3.582031-8-8-8h-176.5c-4.417969 0-8 3.582031-8 8s3.582031 8 8 8zm0 0" fill="url(#g)"/><path d="m237.75 302.5h176.5c4.417969 0 8-3.582031 8-8s-3.582031-8-8-8h-176.5c-4.417969 0-8 3.582031-8 8s3.582031 8 8 8zm0 0" fill="url(#g)"/><path d="m71.65625 269.527344c8.636719 8.320312 12.730469 20.296875 11 32.164062l-.710938 5.464844c-.394531 2.476562.238282 5.007812 1.753907 7.007812.605469.855469 1.390625 1.570313 2.300781 2.09375v25.5c-.074219 5.746094 2.160156 11.285157 6.203125 15.371094 4.039063 4.085938 9.554687 6.382813 15.300781 6.371094h32.980469c5.75.011719 11.265625-2.28125 15.308594-6.371094 4.046875-4.085937 6.28125-9.628906 6.207031-15.375v-25.890625c1-.253906.800781-.519531 1.078125-.8125 1.8125-1.855469 2.808594-4.355469 2.777344-6.949219 0-.074218.039062-.148437.039062-.222656l-.484375-9.625c0-.011718.011719-.027344.011719-.039062-.769531-10.699219 3.226563-21.1875 10.917969-28.660156 15.339844-14.472657 24.035156-34.625 24.046875-55.714844-.003907-21.101563-8.722657-41.269532-24.097657-55.726563s-36.039062-21.917969-57.101562-20.625c-38.707031 2.542969-70.128906 34.730469-71.535156 73.25-.886719 22.148438 7.867187 43.59375 24.003906 58.789063zm74.34375 72.226562c.078125 1.503906-.46875 2.976563-1.511719 4.066406-1.046875 1.085938-2.496093 1.695313-4.003906 1.679688h-32.980469c-1.503906.015625-2.953125-.59375-3.992187-1.683594-1.042969-1.089844-1.585938-2.558594-1.507813-4.0625v-23.253906h44zm-82.359375-130.300781c1.113281-30.453125 25.972656-55.9375 56.53125-57.945313 25.429687-1.574218 49.117187 12.957032 59.238281 36.335938 10.121094 23.382812 4.507813 50.597656-14.039062 68.0625-11.015625 10.421875-16.8125 25.652344-15.910156 41.414062l.15625 3.171876h-17.617188v-72.992188h13.535156c4.417969 0 8-3.582031 8-8s-3.582031-8-8-8h-43.078125c-4.417969 0-8 3.582031-8 8s3.582031 8 8 8h13.542969v73h-17.269531c1.886719-16.496094-4.0625-32.921875-16.078125-44.382812-12.785156-12.070313-19.71875-29.089844-19.011719-46.660157zm0 0" fill="url(#h)"/></svg>