<svg height="472pt" viewBox="0 -18 472 472" width="472pt" xmlns="http://www.w3.org/2000/svg" xmlns:xlink="http://www.w3.org/1999/xlink"><linearGradient id="a"><stop offset="0" stop-color="#00efd1"/><stop offset="1" stop-color="#00acea"/></linearGradient><linearGradient id="b" gradientUnits="userSpaceOnUse" x1="236" x2="236" xlink:href="#a" y1="-25.29" y2="469.478"/><linearGradient id="c" gradientUnits="userSpaceOnUse" x1="98" x2="98" xlink:href="#a" y1="-25.29" y2="469.478"/><linearGradient id="d" gradientUnits="userSpaceOnUse" x1="221" x2="221" xlink:href="#a" y1="-25.29" y2="469.478"/><linearGradient id="e" gradientUnits="userSpaceOnUse" x1="266" x2="266" xlink:href="#a" y1="-25.29" y2="469.478"/><linearGradient id="f" gradientUnits="userSpaceOnUse" x1="236.002" x2="236.002" xlink:href="#a" y1="-25.29" y2="469.478"/><linearGradient id="g" gradientUnits="userSpaceOnUse" x1="123.31" x2="123.31" xlink:href="#a" y1="-25.29" y2="469.478"/><linearGradient id="h" gradientUnits="userSpaceOnUse" x1="191.448" x2="191.448" xlink:href="#a" y1="-25.29" y2="469.478"/><linearGradient id="i" gradientUnits="userSpaceOnUse" x1="55.172" x2="55.172" xlink:href="#a" y1="-25.29" y2="469.478"/><path d="m68 216h336c4.417969 0 8-3.582031 8-8v-64c0-4.417969-3.582031-8-8-8h-336c-4.417969 0-8 3.582031-8 8v64c0 4.417969 3.582031 8 8 8zm68-64h260v48h-260zm-60 0h44v48h-44zm0 0" fill="url(#b)"/><path d="m68 309h60c4.417969 0 8-3.582031 8-8v-54c0-4.417969-3.582031-8-8-8h-60c-4.417969 0-8 3.582031-8 8v54c0 4.417969 3.582031 8 8 8zm8-54h44v38h-44zm0 0" fill="url(#c)"/><path d="m162 265h118c4.417969 0 8-3.582031 8-8s-3.582031-8-8-8h-118c-4.417969 0-8 3.582031-8 8s3.582031 8 8 8zm0 0" fill="url(#d)"/><path d="m370 283h-208c-4.417969 0-8 3.582031-8 8s3.582031 8 8 8h208c4.417969 0 8-3.582031 8-8s-3.582031-8-8-8zm0 0" fill="url(#e)"/><path d="m68 401h60c4.417969 0 8-3.582031 8-8v-54c0-4.417969-3.582031-8-8-8h-60c-4.417969 0-8 3.582031-8 8v54c0 4.417969 3.582031 8 8 8zm8-54h44v38h-44zm0 0" fill="url(#c)"/><path d="m162 357h118c4.417969 0 8-3.582031 8-8s-3.582031-8-8-8h-118c-4.417969 0-8 3.582031-8 8s3.582031 8 8 8zm0 0" fill="url(#d)"/><path d="m370 375h-208c-4.417969 0-8 3.582031-8 8s3.582031 8 8 8h208c4.417969 0 8-3.582031 8-8s-3.582031-8-8-8zm0 0" fill="url(#e)"/><path d="m472 7.542969c0-4.417969-3.585938-7.542969-8-7.542969h-456c-4.417969 0-8 3.125-8 7.542969v420.914062c0 4.417969 3.582031 7.542969 8 7.542969h456c4.417969 0 8-3.125 8-7.542969v-318.105469c0-.027343 0-.050781 0-.078124 0-.027344 0-.050782 0-.078126zm-16 412.457031h-440v-302h440zm0-318h-440v-86h440zm0 0" fill="url(#f)"/><path d="m123.308594 88.03125c15.972656 0 28.96875-13.453125 28.96875-29.992188 0-16.539062-12.996094-29.996093-28.96875-29.996093-15.96875 0-28.964844 13.457031-28.964844 29.996093 0 16.535157 12.996094 29.992188 28.964844 29.992188zm0-43.988281c7.152344 0 12.96875 6.277343 12.96875 13.996093 0 7.714844-5.816406 13.992188-12.96875 13.992188-7.148438 0-12.964844-6.277344-12.964844-13.992188 0-7.71875 5.816406-13.996093 12.964844-13.996093zm0 0" fill="url(#g)"/><path d="m191.449219 88.03125c15.972656 0 28.964843-13.453125 28.964843-29.992188 0-16.539062-12.992187-29.996093-28.964843-29.996093-15.972657 0-28.96875 13.457031-28.96875 29.996093 0 16.535157 12.996093 29.992188 28.96875 29.992188zm0-43.988281c7.148437 0 12.964843 6.277343 12.964843 13.996093 0 7.714844-5.816406 13.992188-12.964843 13.992188-7.152344 0-12.96875-6.277344-12.96875-13.992188 0-7.71875 5.820312-13.996093 12.96875-13.996093zm0 0" fill="url(#h)"/><path d="m55.171875 88.03125c15.972656 0 28.964844-13.453125 28.964844-29.992188 0-16.539062-12.992188-29.996093-28.964844-29.996093s-28.964844 13.457031-28.964844 29.996093c0 16.535157 12.992188 29.992188 28.964844 29.992188zm0-43.988281c7.148437 0 12.964844 6.277343 12.964844 13.996093 0 7.714844-5.816407 13.992188-12.964844 13.992188s-12.964844-6.277344-12.964844-13.992188c0-7.71875 5.816407-13.996093 12.964844-13.996093zm0 0" fill="url(#i)"/></svg>